<svg width="170" height="214" viewBox="0 0 170 214" fill="none" xmlns="http://www.w3.org/2000/svg">
<rect width="170" height="214" fill="white"/>
<g clip-path="url(#clip0_29_101)">
<rect x="10" y="17" width="150" height="50" rx="10" fill="white"/>
<rect x="10.15" y="17.15" width="149.7" height="49.7" rx="9.85" fill="white" stroke="black" stroke-width="0.3"/>
<rect x="10" y="17" width="150" height="16" fill="#AD3333"/>
<rect x="17" y="20" width="10" height="10" rx="3" fill="white"/>
<rect x="128" y="20" width="10" height="10" rx="3" fill="white"/>
<rect x="143" y="20" width="10" height="10" rx="3" fill="white"/>
<rect x="32" y="20" width="10" height="10" rx="3" fill="white"/>
<rect x="22" y="36" width="45" height="6" rx="3" fill="#D9D9D9"/>
<rect x="22" y="54" width="45" height="6" rx="3" fill="#D9D9D9"/>
<rect x="22" y="45" width="60" height="6" rx="3" fill="#D9D9D9"/>
<circle cx="17" cy="39" r="2" fill="#AD3333"/>
<circle cx="17" cy="48" r="2" fill="#AD3333"/>
<circle cx="17" cy="57" r="2" fill="#AD3333"/>
</g>
<g clip-path="url(#clip1_29_101)">
<rect x="10" y="82" width="150" height="50" rx="10" fill="white"/>
<rect x="10" y="82" width="150" height="50" rx="10" fill="white"/>
<circle cx="17" cy="104" r="2" fill="#33AD97"/>
<circle cx="17" cy="122" r="2" fill="#33AD97"/>
<circle cx="17" cy="113" r="2" fill="#33AD97"/>
<rect x="10" y="82" width="150" height="16" fill="#33AD97"/>
<rect x="17" y="85" width="10" height="10" rx="3" fill="white"/>
<rect x="128" y="85" width="10" height="10" rx="3" fill="white"/>
<rect x="143" y="85" width="10" height="10" rx="3" fill="white"/>
<rect x="32" y="85" width="10" height="10" rx="3" fill="white"/>
<rect x="22" y="101" width="45" height="6" rx="3" fill="#D9D9D9"/>
<rect x="22" y="110" width="60" height="6" rx="3" fill="#D9D9D9"/>
<rect x="22" y="119" width="45" height="6" rx="3" fill="#D9D9D9"/>
</g>
<rect x="10.15" y="82.15" width="149.7" height="49.7" rx="9.85" stroke="black" stroke-width="0.3"/>
<g clip-path="url(#clip2_29_101)">
<rect x="10" y="147" width="150" height="50" rx="10" fill="white"/>
<rect x="10" y="147" width="150" height="50" rx="10" fill="white"/>
<path d="M10 147H160V163H10V147Z" fill="#2C2A28"/>
<rect x="17" y="150" width="10" height="10" rx="3" fill="white"/>
<rect x="128" y="150" width="10" height="10" rx="3" fill="white"/>
<rect x="143" y="150" width="10" height="10" rx="3" fill="white"/>
<rect x="32" y="150" width="10" height="10" rx="3" fill="white"/>
<rect x="22" y="166" width="45" height="6" rx="3" fill="#D9D9D9"/>
<rect x="22" y="184" width="45" height="6" rx="3" fill="#D9D9D9"/>
<rect x="22" y="175" width="60" height="6" rx="3" fill="#D9D9D9"/>
<circle cx="17" cy="187" r="2" fill="#2C2A28"/>
<circle cx="17" cy="169" r="2" fill="#2C2A28"/>
<circle cx="17" cy="178" r="2" fill="#2C2A28"/>
</g>
<rect x="10.15" y="147.15" width="149.7" height="49.7" rx="9.85" stroke="black" stroke-width="0.3"/>
<defs>
<clipPath id="clip0_29_101">
<rect x="10" y="17" width="150" height="50" rx="10" fill="white"/>
</clipPath>
<clipPath id="clip1_29_101">
<rect x="10" y="82" width="150" height="50" rx="10" fill="white"/>
</clipPath>
<clipPath id="clip2_29_101">
<rect x="10" y="147" width="150" height="50" rx="10" fill="white"/>
</clipPath>
</defs>
</svg>
