<svg width="150" height="240" viewBox="0 0 150 240" fill="none" xmlns="http://www.w3.org/2000/svg">
<g clip-path="url(#clip0_1_2)">
<rect width="150" height="240" rx="10" fill="white"/>
<rect x="0.15" y="0.15" width="149.7" height="239.7" rx="9.85" fill="white" stroke="black" stroke-width="0.3"/>
<rect x="10" y="197" width="63" height="19" rx="7" fill="#F3F3F3"/>
<path d="M27.532 209.072C27.2 209.072 26.892 209.018 26.608 208.91C26.328 208.802 26.084 208.65 25.876 208.454C25.672 208.258 25.512 208.028 25.396 207.764C25.284 207.5 25.228 207.212 25.228 206.9C25.228 206.588 25.284 206.3 25.396 206.036C25.512 205.772 25.674 205.542 25.882 205.346C26.09 205.15 26.334 204.998 26.614 204.89C26.894 204.782 27.198 204.728 27.526 204.728C27.858 204.728 28.162 204.782 28.438 204.89C28.718 204.998 28.96 205.15 29.164 205.346C29.372 205.542 29.534 205.772 29.65 206.036C29.766 206.296 29.824 206.584 29.824 206.9C29.824 207.212 29.766 207.502 29.65 207.77C29.534 208.034 29.372 208.264 29.164 208.46C28.96 208.652 28.718 208.802 28.438 208.91C28.162 209.018 27.86 209.072 27.532 209.072ZM27.526 208.244C27.714 208.244 27.886 208.212 28.042 208.148C28.202 208.084 28.342 207.992 28.462 207.872C28.582 207.752 28.674 207.61 28.738 207.446C28.806 207.282 28.84 207.1 28.84 206.9C28.84 206.7 28.806 206.518 28.738 206.354C28.674 206.19 28.582 206.048 28.462 205.928C28.346 205.808 28.208 205.716 28.048 205.652C27.888 205.588 27.714 205.556 27.526 205.556C27.338 205.556 27.164 205.588 27.004 205.652C26.848 205.716 26.71 205.808 26.59 205.928C26.47 206.048 26.376 206.19 26.308 206.354C26.244 206.518 26.212 206.7 26.212 206.9C26.212 207.096 26.244 207.278 26.308 207.446C26.376 207.61 26.468 207.752 26.584 207.872C26.704 207.992 26.844 208.084 27.004 208.148C27.164 208.212 27.338 208.244 27.526 208.244ZM32.5348 207.764C32.4028 207.836 32.2568 207.894 32.0968 207.938C31.9368 207.982 31.7608 208.004 31.5688 208.004C31.1448 208.004 30.8188 207.908 30.5908 207.716C30.3628 207.52 30.2488 207.21 30.2488 206.786V205.772H31.1848V206.726C31.1848 206.926 31.2368 207.07 31.3408 207.158C31.4448 207.242 31.5908 207.284 31.7788 207.284C31.9148 207.284 32.0448 207.268 32.1688 207.236C32.2968 207.204 32.4188 207.158 32.5348 207.098V207.764ZM32.4688 209V205.772H33.4048V209H32.4688ZM34.3035 209V205.772H35.2335V207.692L36.8055 205.772H37.6635V209H36.7335V207.08L35.1675 209H34.3035ZM40.0993 209.048C39.7513 209.048 39.4413 208.978 39.1693 208.838C38.8973 208.694 38.6833 208.496 38.5273 208.244C38.3753 207.992 38.2993 207.706 38.2993 207.386C38.2993 207.062 38.3753 206.776 38.5273 206.528C38.6833 206.276 38.8973 206.08 39.1693 205.94C39.4413 205.796 39.7513 205.724 40.0993 205.724C40.4393 205.724 40.7353 205.796 40.9873 205.94C41.2393 206.08 41.4253 206.282 41.5453 206.546L40.8193 206.936C40.7353 206.784 40.6293 206.672 40.5013 206.6C40.3773 206.528 40.2413 206.492 40.0933 206.492C39.9333 206.492 39.7893 206.528 39.6613 206.6C39.5333 206.672 39.4313 206.774 39.3553 206.906C39.2833 207.038 39.2473 207.198 39.2473 207.386C39.2473 207.574 39.2833 207.734 39.3553 207.866C39.4313 207.998 39.5333 208.1 39.6613 208.172C39.7893 208.244 39.9333 208.28 40.0933 208.28C40.2413 208.28 40.3773 208.246 40.5013 208.178C40.6293 208.106 40.7353 207.992 40.8193 207.836L41.5453 208.232C41.4253 208.492 41.2393 208.694 40.9873 208.838C40.7353 208.978 40.4393 209.048 40.0993 209.048ZM42.7982 209V206.324L43.0082 206.54H41.7062V205.772H44.8202V206.54H43.5182L43.7282 206.324V209H42.7982ZM45.3191 209V205.772H46.2491V207.692L47.8211 205.772H48.6791V209H47.7491V207.08L46.1831 209H45.3191ZM50.2689 209V206.324L50.4789 206.54H49.1769V205.772H52.2909V206.54H50.9889L51.1989 206.324V209H50.2689ZM54.5358 206.804C54.9598 206.808 55.2818 206.904 55.5018 207.092C55.7258 207.276 55.8378 207.538 55.8378 207.878C55.8378 208.234 55.7118 208.512 55.4598 208.712C55.2078 208.908 54.8578 209.006 54.4098 209.006L52.7898 209V205.772H53.7198V206.804H54.5358ZM54.3258 208.34C54.5058 208.344 54.6438 208.306 54.7398 208.226C54.8358 208.146 54.8838 208.026 54.8838 207.866C54.8838 207.706 54.8358 207.592 54.7398 207.524C54.6438 207.452 54.5058 207.414 54.3258 207.41L53.7198 207.404V208.34H54.3258Z" fill="black"/>
<circle cx="14.5" cy="75.5" r="4.25" fill="#AD3333" fill-opacity="0.35" stroke="#AD3333" stroke-width="0.5"/>
<circle cx="14.5" cy="100.5" r="4.25" fill="#AD3333" fill-opacity="0.35" stroke="#AD3333" stroke-width="0.5"/>
<circle cx="14.5" cy="125.5" r="4.25" fill="#AD3333" fill-opacity="0.35" stroke="#AD3333" stroke-width="0.5"/>
<path d="M30 79.7L140 79.7" stroke="black" stroke-width="0.3"/>
<line x1="30" y1="129.85" x2="140" y2="129.85" stroke="black" stroke-width="0.3"/>
<path d="M30 104.7L140 104.7" stroke="black" stroke-width="0.3"/>
<rect width="150" height="25" rx="10" fill="#AD3333"/>
<rect y="15" width="150" height="12" fill="#AD3333"/>
<g clip-path="url(#clip1_1_2)">
<path d="M141.975 15.9014C141.358 16.5721 140.481 17 139.5 17C138.519 17 137.642 16.5721 137.025 15.9014C135.986 16.4263 135.375 17.4599 135.375 18.875V20H143.625V18.875C143.625 17.4599 143.014 16.4263 141.975 15.9014Z" fill="white"/>
<path d="M139.5 16.25C140.95 16.25 142.125 15.0747 142.125 13.625C142.125 12.1753 140.95 11 139.5 11C138.05 11 136.875 12.1753 136.875 13.625C136.875 15.0747 138.05 16.25 139.5 16.25Z" fill="white"/>
</g>
<path d="M122.42 18.875C122.293 18.8752 122.168 18.8467 122.053 18.7916C121.939 18.7366 121.838 18.6565 121.759 18.5572L119.906 16.2369C119.867 16.1782 119.851 16.107 119.862 16.0374C119.873 15.9678 119.91 15.9048 119.965 15.861C120.02 15.8172 120.09 15.7956 120.16 15.8006C120.23 15.8057 120.296 15.8369 120.344 15.8881L122.198 18.2056C122.225 18.2413 122.261 18.2698 122.301 18.289C122.342 18.3081 122.387 18.3172 122.431 18.3156C122.476 18.3139 122.52 18.3016 122.559 18.2795C122.598 18.2574 122.632 18.2263 122.656 18.1887L126.642 12.2487C126.662 12.2181 126.689 12.1918 126.72 12.1714C126.75 12.151 126.785 12.1369 126.821 12.1298C126.858 12.1227 126.895 12.1229 126.931 12.1303C126.967 12.1377 127.002 12.1521 127.032 12.1728C127.063 12.1935 127.089 12.22 127.11 12.2508C127.13 12.2817 127.144 12.3162 127.151 12.3525C127.158 12.3888 127.158 12.4262 127.151 12.4624C127.144 12.4987 127.129 12.5331 127.108 12.5637L123.126 18.5009C123.052 18.6117 122.953 18.7034 122.836 18.7684C122.72 18.8334 122.59 18.8699 122.457 18.875H122.42Z" fill="white"/>
<path d="M13.3125 16.5C13.3125 16.8105 13.0605 17.0625 12.75 17.0625H8.25C7.9395 17.0625 7.6875 16.8105 7.6875 16.5C7.6875 16.1895 7.9395 15.9375 8.25 15.9375H12.75C13.0605 15.9375 13.3125 16.1895 13.3125 16.5Z" fill="white"/>
<path d="M13.3125 14.25C13.3125 14.5605 13.0605 14.8125 12.75 14.8125H8.25C7.9395 14.8125 7.6875 14.5605 7.6875 14.25C7.6875 13.9395 7.9395 13.6875 8.25 13.6875H12.75C13.0605 13.6875 13.3125 13.9395 13.3125 14.25Z" fill="white"/>
<path d="M13.3125 18.75C13.3125 19.0605 13.0605 19.3125 12.75 19.3125H8.25C7.9395 19.3125 7.6875 19.0605 7.6875 18.75C7.6875 18.4395 7.9395 18.1875 8.25 18.1875H12.75C13.0605 18.1875 13.3125 18.4395 13.3125 18.75Z" fill="white"/>
<g clip-path="url(#clip2_1_2)">
<path d="M29.4925 16.8511C29.3442 16.8511 29.2241 16.9713 29.2241 17.1195V19.8434H23.7763V17.1195C23.7763 16.9713 23.6562 16.8511 23.5079 16.8511C23.3596 16.8511 23.2395 16.9713 23.2395 17.1195V20.1118C23.2395 20.26 23.3596 20.3802 23.5079 20.3802H29.4925C29.6407 20.3802 29.7609 20.26 29.7609 20.1118V17.1195C29.7609 16.9713 29.6407 16.8511 29.4925 16.8511Z" fill="white"/>
<path d="M30.9214 16.9298L26.6895 12.6984C26.5848 12.5936 26.4148 12.5936 26.31 12.6984L22.0786 16.9298C21.9738 17.0346 21.9738 17.2046 22.0786 17.3093C22.1311 17.3617 22.1998 17.388 22.2685 17.388C22.3372 17.388 22.4059 17.3618 22.4583 17.3093L26.4998 13.2678L30.5419 17.3093C30.6466 17.4142 30.8166 17.4141 30.9215 17.3093C31.0262 17.2045 31.0262 17.0346 30.9214 16.9298Z" fill="white"/>
</g>
<path d="M24.35 50.16L24.62 49.63C24.9267 49.8967 25.27 50.0967 25.65 50.23C26.0367 50.3567 26.4233 50.4233 26.81 50.43C27.1967 50.43 27.55 50.3733 27.87 50.26C28.1967 50.1467 28.46 49.98 28.66 49.76C28.86 49.5333 28.96 49.26 28.96 48.94C28.96 48.5333 28.7967 48.22 28.47 48C28.15 47.78 27.7033 47.67 27.13 47.67H25.63V47.07H27.09C27.5833 47.07 27.9667 46.9667 28.24 46.76C28.52 46.5467 28.66 46.2533 28.66 45.88C28.66 45.6133 28.58 45.3867 28.42 45.2C28.2667 45.0067 28.0533 44.86 27.78 44.76C27.5133 44.6533 27.2133 44.5967 26.88 44.59C26.5467 44.5767 26.2 44.62 25.84 44.72C25.4867 44.8133 25.1433 44.9633 24.81 45.17L24.57 44.56C24.9833 44.3133 25.4133 44.1433 25.86 44.05C26.3067 43.95 26.74 43.9167 27.16 43.95C27.58 43.9833 27.9567 44.08 28.29 44.24C28.63 44.4 28.9 44.61 29.1 44.87C29.3 45.13 29.4 45.44 29.4 45.8C29.4 46.1333 29.3133 46.4267 29.14 46.68C28.9733 46.9333 28.7367 47.13 28.43 47.27C28.13 47.4033 27.7733 47.47 27.36 47.47L27.4 47.25C27.8667 47.25 28.27 47.3233 28.61 47.47C28.9567 47.6167 29.2233 47.8267 29.41 48.1C29.6033 48.3667 29.7 48.68 29.7 49.04C29.7 49.38 29.6133 49.6833 29.44 49.95C29.2733 50.21 29.04 50.43 28.74 50.61C28.4467 50.7833 28.1167 50.91 27.75 50.99C27.3833 51.0633 27 51.0833 26.6 51.05C26.2 51.0167 25.8067 50.93 25.42 50.79C25.0333 50.6433 24.6767 50.4333 24.35 50.16ZM34.6274 51V49.84L34.5974 49.65V47.71C34.5974 47.2633 34.4708 46.92 34.2174 46.68C33.9708 46.44 33.6008 46.32 33.1074 46.32C32.7674 46.32 32.4441 46.3767 32.1374 46.49C31.8308 46.6033 31.5708 46.7533 31.3574 46.94L31.0374 46.41C31.3041 46.1833 31.6241 46.01 31.9974 45.89C32.3708 45.7633 32.7641 45.7 33.1774 45.7C33.8574 45.7 34.3808 45.87 34.7474 46.21C35.1208 46.5433 35.3074 47.0533 35.3074 47.74V51H34.6274ZM32.8174 51.05C32.4241 51.05 32.0808 50.9867 31.7874 50.86C31.5008 50.7267 31.2808 50.5467 31.1274 50.32C30.9741 50.0867 30.8974 49.82 30.8974 49.52C30.8974 49.2467 30.9608 49 31.0874 48.78C31.2208 48.5533 31.4341 48.3733 31.7274 48.24C32.0274 48.1 32.4274 48.03 32.9274 48.03H34.7374V48.56H32.9474C32.4408 48.56 32.0874 48.65 31.8874 48.83C31.6941 49.01 31.5974 49.2333 31.5974 49.5C31.5974 49.8 31.7141 50.04 31.9474 50.22C32.1808 50.4 32.5074 50.49 32.9274 50.49C33.3274 50.49 33.6708 50.4 33.9574 50.22C34.2508 50.0333 34.4641 49.7667 34.5974 49.42L34.7574 49.91C34.6241 50.2567 34.3908 50.5333 34.0574 50.74C33.7308 50.9467 33.3174 51.05 32.8174 51.05ZM40.7975 50.66V46.37H38.2675L38.2075 47.54C38.1942 47.8933 38.1708 48.24 38.1375 48.58C38.1108 48.92 38.0608 49.2333 37.9875 49.52C37.9208 49.8 37.8242 50.03 37.6975 50.21C37.5708 50.3833 37.4075 50.4833 37.2075 50.51L36.4975 50.38C36.7042 50.3867 36.8742 50.3133 37.0075 50.16C37.1408 50 37.2442 49.7833 37.3175 49.51C37.3908 49.2367 37.4442 48.9267 37.4775 48.58C37.5108 48.2267 37.5375 47.8667 37.5575 47.5L37.6275 45.75H41.5075V50.66H40.7975ZM36.2775 52.27V50.38H42.3275V52.27H41.6575V51H36.9475V52.27H36.2775ZM46.9712 51V49.84L46.9412 49.65V47.71C46.9412 47.2633 46.8145 46.92 46.5612 46.68C46.3145 46.44 45.9445 46.32 45.4512 46.32C45.1112 46.32 44.7878 46.3767 44.4812 46.49C44.1745 46.6033 43.9145 46.7533 43.7012 46.94L43.3812 46.41C43.6478 46.1833 43.9678 46.01 44.3412 45.89C44.7145 45.7633 45.1078 45.7 45.5212 45.7C46.2012 45.7 46.7245 45.87 47.0912 46.21C47.4645 46.5433 47.6512 47.0533 47.6512 47.74V51H46.9712ZM45.1612 51.05C44.7678 51.05 44.4245 50.9867 44.1312 50.86C43.8445 50.7267 43.6245 50.5467 43.4712 50.32C43.3178 50.0867 43.2412 49.82 43.2412 49.52C43.2412 49.2467 43.3045 49 43.4312 48.78C43.5645 48.5533 43.7778 48.3733 44.0712 48.24C44.3712 48.1 44.7712 48.03 45.2712 48.03H47.0812V48.56H45.2912C44.7845 48.56 44.4312 48.65 44.2312 48.83C44.0378 49.01 43.9412 49.2333 43.9412 49.5C43.9412 49.8 44.0578 50.04 44.2912 50.22C44.5245 50.4 44.8512 50.49 45.2712 50.49C45.6712 50.49 46.0145 50.4 46.3012 50.22C46.5945 50.0333 46.8078 49.7667 46.9412 49.42L47.1012 49.91C46.9678 50.2567 46.7345 50.5333 46.4012 50.74C46.0745 50.9467 45.6612 51.05 45.1612 51.05ZM52.8613 48.78C52.5546 48.9133 52.2446 49.02 51.9313 49.1C51.6246 49.1733 51.3179 49.21 51.0113 49.21C50.3913 49.21 49.9013 49.07 49.5413 48.79C49.1813 48.5033 49.0013 48.0633 49.0013 47.47V45.75H49.7013V47.43C49.7013 47.83 49.8313 48.13 50.0913 48.33C50.3513 48.53 50.7013 48.63 51.1413 48.63C51.4079 48.63 51.6879 48.5967 51.9813 48.53C52.2746 48.4567 52.5713 48.3533 52.8713 48.22L52.8613 48.78ZM52.8013 51V45.75H53.5113V51H52.8013ZM58.1448 51V45.75H58.8548V48.07H62.1648V45.75H62.8748V51H62.1648V48.68H58.8548V51H58.1448ZM68.1528 51V49.84L68.1228 49.65V47.71C68.1228 47.2633 67.9961 46.92 67.7428 46.68C67.4961 46.44 67.1261 46.32 66.6328 46.32C66.2928 46.32 65.9695 46.3767 65.6628 46.49C65.3561 46.6033 65.0961 46.7533 64.8828 46.94L64.5628 46.41C64.8295 46.1833 65.1495 46.01 65.5228 45.89C65.8961 45.7633 66.2895 45.7 66.7028 45.7C67.3828 45.7 67.9061 45.87 68.2728 46.21C68.6461 46.5433 68.8328 47.0533 68.8328 47.74V51H68.1528ZM66.3428 51.05C65.9495 51.05 65.6061 50.9867 65.3128 50.86C65.0261 50.7267 64.8061 50.5467 64.6528 50.32C64.4995 50.0867 64.4228 49.82 64.4228 49.52C64.4228 49.2467 64.4861 49 64.6128 48.78C64.7461 48.5533 64.9595 48.3733 65.2528 48.24C65.5528 48.1 65.9528 48.03 66.4528 48.03H68.2628V48.56H66.4728C65.9661 48.56 65.6128 48.65 65.4128 48.83C65.2195 49.01 65.1228 49.2333 65.1228 49.5C65.1228 49.8 65.2395 50.04 65.4728 50.22C65.7061 50.4 66.0328 50.49 66.4528 50.49C66.8528 50.49 67.1961 50.4 67.4828 50.22C67.7761 50.0333 67.9895 49.7667 68.1228 49.42L68.2828 49.91C68.1495 50.2567 67.9161 50.5333 67.5828 50.74C67.2561 50.9467 66.8428 51.05 66.3428 51.05ZM75.5401 51.05C75.0201 51.05 74.5534 50.9367 74.1401 50.71C73.7334 50.4767 73.4134 50.16 73.1801 49.76C72.9467 49.3533 72.8301 48.89 72.8301 48.37C72.8301 47.8433 72.9467 47.38 73.1801 46.98C73.4134 46.58 73.7334 46.2667 74.1401 46.04C74.5534 45.8133 75.0201 45.7 75.5401 45.7C75.9867 45.7 76.3901 45.7867 76.7501 45.96C77.1101 46.1333 77.3934 46.3933 77.6001 46.74L77.0701 47.1C76.8901 46.8333 76.6667 46.6367 76.4001 46.51C76.1334 46.3833 75.8434 46.32 75.5301 46.32C75.1567 46.32 74.8201 46.4067 74.5201 46.58C74.2201 46.7467 73.9834 46.9833 73.8101 47.29C73.6367 47.5967 73.5501 47.9567 73.5501 48.37C73.5501 48.7833 73.6367 49.1433 73.8101 49.45C73.9834 49.7567 74.2201 49.9967 74.5201 50.17C74.8201 50.3367 75.1567 50.42 75.5301 50.42C75.8434 50.42 76.1334 50.3567 76.4001 50.23C76.6667 50.1033 76.8901 49.91 77.0701 49.65L77.6001 50.01C77.3934 50.35 77.1101 50.61 76.7501 50.79C76.3901 50.9633 75.9867 51.05 75.5401 51.05ZM81.137 51.05C80.5903 51.05 80.1103 50.9367 79.697 50.71C79.2836 50.4767 78.9603 50.16 78.727 49.76C78.4936 49.3533 78.377 48.89 78.377 48.37C78.377 47.85 78.487 47.39 78.707 46.99C78.9336 46.59 79.2403 46.2767 79.627 46.05C80.0203 45.8167 80.4603 45.7 80.947 45.7C81.4403 45.7 81.877 45.8133 82.257 46.04C82.6436 46.26 82.947 46.5733 83.167 46.98C83.387 47.38 83.497 47.8433 83.497 48.37C83.497 48.4033 83.4936 48.44 83.487 48.48C83.487 48.5133 83.487 48.55 83.487 48.59H78.917V48.06H83.107L82.827 48.27C82.827 47.89 82.7436 47.5533 82.577 47.26C82.417 46.96 82.197 46.7267 81.917 46.56C81.637 46.3933 81.3136 46.31 80.947 46.31C80.587 46.31 80.2636 46.3933 79.977 46.56C79.6903 46.7267 79.467 46.96 79.307 47.26C79.147 47.56 79.067 47.9033 79.067 48.29V48.4C79.067 48.8 79.1536 49.1533 79.327 49.46C79.507 49.76 79.7536 49.9967 80.067 50.17C80.387 50.3367 80.7503 50.42 81.157 50.42C81.477 50.42 81.7736 50.3633 82.047 50.25C82.327 50.1367 82.567 49.9633 82.767 49.73L83.167 50.19C82.9336 50.47 82.6403 50.6833 82.287 50.83C81.9403 50.9767 81.557 51.05 81.137 51.05ZM85.0686 51V45.75H88.7886V46.37H85.5986L85.7786 46.19V51H85.0686ZM91.7305 51.05C91.2239 51.05 90.7672 50.9367 90.3605 50.71C89.9605 50.4767 89.6439 50.16 89.4105 49.76C89.1772 49.3533 89.0605 48.89 89.0605 48.37C89.0605 47.8433 89.1772 47.38 89.4105 46.98C89.6439 46.58 89.9605 46.2667 90.3605 46.04C90.7605 45.8133 91.2172 45.7 91.7305 45.7C92.2505 45.7 92.7105 45.8133 93.1105 46.04C93.5172 46.2667 93.8339 46.58 94.0605 46.98C94.2939 47.38 94.4105 47.8433 94.4105 48.37C94.4105 48.89 94.2939 49.3533 94.0605 49.76C93.8339 50.16 93.5172 50.4767 93.1105 50.71C92.7039 50.9367 92.2439 51.05 91.7305 51.05ZM91.7305 50.42C92.1105 50.42 92.4472 50.3367 92.7405 50.17C93.0339 49.9967 93.2639 49.7567 93.4305 49.45C93.6039 49.1367 93.6905 48.7767 93.6905 48.37C93.6905 47.9567 93.6039 47.5967 93.4305 47.29C93.2639 46.9833 93.0339 46.7467 92.7405 46.58C92.4472 46.4067 92.1139 46.32 91.7405 46.32C91.3672 46.32 91.0339 46.4067 90.7405 46.58C90.4472 46.7467 90.2139 46.9833 90.0405 47.29C89.8672 47.5967 89.7805 47.9567 89.7805 48.37C89.7805 48.7767 89.8672 49.1367 90.0405 49.45C90.2139 49.7567 90.4472 49.9967 90.7405 50.17C91.0339 50.3367 91.3639 50.42 91.7305 50.42ZM99.4987 50.66V46.37H96.9687L96.9087 47.54C96.8953 47.8933 96.872 48.24 96.8387 48.58C96.812 48.92 96.762 49.2333 96.6887 49.52C96.622 49.8 96.5253 50.03 96.3987 50.21C96.272 50.3833 96.1087 50.4833 95.9087 50.51L95.1987 50.38C95.4053 50.3867 95.5753 50.3133 95.7087 50.16C95.842 50 95.9453 49.7833 96.0187 49.51C96.092 49.2367 96.1453 48.9267 96.1787 48.58C96.212 48.2267 96.2387 47.8667 96.2587 47.5L96.3287 45.75H100.209V50.66H99.4987ZM94.9787 52.27V50.38H101.029V52.27H100.359V51H95.6487V52.27H94.9787ZM102.412 51V45.75H103.122V48.07H106.432V45.75H107.142V51H106.432V48.68H103.122V51H102.412ZM112.55 51V49.11L112.68 49.26H110.9C110.227 49.26 109.7 49.1133 109.32 48.82C108.94 48.5267 108.75 48.1 108.75 47.54C108.75 46.94 108.954 46.4933 109.36 46.2C109.767 45.9 110.31 45.75 110.99 45.75H113.2V51H112.55ZM108.71 51L110.15 48.98H110.89L109.48 51H108.71ZM112.55 48.9V46.16L112.68 46.37H111.01C110.524 46.37 110.144 46.4633 109.87 46.65C109.604 46.8367 109.47 47.14 109.47 47.56C109.47 48.34 109.967 48.73 110.96 48.73H112.68L112.55 48.9ZM115.275 46.79C115.128 46.79 115.002 46.7367 114.895 46.63C114.795 46.5233 114.745 46.3933 114.745 46.24C114.745 46.08 114.795 45.95 114.895 45.85C115.002 45.75 115.128 45.7 115.275 45.7C115.422 45.7 115.545 45.75 115.645 45.85C115.752 45.95 115.805 46.08 115.805 46.24C115.805 46.3933 115.752 46.5233 115.645 46.63C115.545 46.7367 115.422 46.79 115.275 46.79ZM115.275 51.05C115.128 51.05 115.002 50.9967 114.895 50.89C114.795 50.7833 114.745 50.6533 114.745 50.5C114.745 50.34 114.795 50.21 114.895 50.11C115.002 50.01 115.128 49.96 115.275 49.96C115.422 49.96 115.545 50.01 115.645 50.11C115.752 50.21 115.805 50.34 115.805 50.5C115.805 50.6533 115.752 50.7833 115.645 50.89C115.545 50.9967 115.422 51.05 115.275 51.05ZM121.561 51.06C121.055 51.06 120.575 50.98 120.121 50.82C119.675 50.6533 119.315 50.4333 119.041 50.16L119.391 49.59C119.618 49.8233 119.921 50.0167 120.301 50.17C120.688 50.3233 121.108 50.4 121.561 50.4C122.141 50.4 122.585 50.2733 122.891 50.02C123.205 49.7667 123.361 49.4267 123.361 49C123.361 48.5733 123.208 48.2333 122.901 47.98C122.601 47.7267 122.125 47.6 121.471 47.6H120.971V47.07L123.131 44.36L123.231 44.64H119.331V44H123.831V44.51L121.671 47.22L121.321 46.99H121.591C122.431 46.99 123.058 47.1767 123.471 47.55C123.891 47.9233 124.101 48.4033 124.101 48.99C124.101 49.3833 124.008 49.7367 123.821 50.05C123.635 50.3633 123.351 50.61 122.971 50.79C122.598 50.97 122.128 51.06 121.561 51.06Z" fill="black"/>
<line x1="24" y1="57.75" x2="126" y2="57.75" stroke="#AD3333" stroke-width="0.5"/>
<rect x="10.15" y="141.15" width="129.7" height="49.7" rx="9.85" fill="white" stroke="black" stroke-width="0.3"/>
<path d="M22.55 175.036C22.234 175.036 21.94 174.984 21.668 174.88C21.4 174.772 21.166 174.622 20.966 174.43C20.77 174.234 20.616 174.008 20.504 173.752C20.396 173.492 20.342 173.208 20.342 172.9C20.342 172.592 20.396 172.31 20.504 172.054C20.616 171.794 20.77 171.568 20.966 171.376C21.166 171.18 21.4 171.03 21.668 170.926C21.936 170.818 22.23 170.764 22.55 170.764C22.866 170.764 23.158 170.818 23.426 170.926C23.694 171.03 23.926 171.178 24.122 171.37C24.322 171.562 24.476 171.788 24.584 172.048C24.696 172.308 24.752 172.592 24.752 172.9C24.752 173.208 24.696 173.492 24.584 173.752C24.476 174.012 24.322 174.238 24.122 174.43C23.926 174.622 23.694 174.772 23.426 174.88C23.158 174.984 22.866 175.036 22.55 175.036ZM22.55 174.64C22.802 174.64 23.034 174.598 23.246 174.514C23.462 174.426 23.648 174.304 23.804 174.148C23.964 173.988 24.088 173.804 24.176 173.596C24.264 173.384 24.308 173.152 24.308 172.9C24.308 172.648 24.264 172.418 24.176 172.21C24.088 171.998 23.964 171.814 23.804 171.658C23.648 171.498 23.462 171.376 23.246 171.292C23.034 171.204 22.802 171.16 22.55 171.16C22.298 171.16 22.064 171.204 21.848 171.292C21.632 171.376 21.444 171.498 21.284 171.658C21.128 171.814 21.004 171.998 20.912 172.21C20.824 172.418 20.78 172.648 20.78 172.9C20.78 173.148 20.824 173.378 20.912 173.59C21.004 173.802 21.128 173.988 21.284 174.148C21.444 174.304 21.632 174.426 21.848 174.514C22.064 174.598 22.298 174.64 22.55 174.64ZM25.7095 175V171.85H28.5415V175H28.1155V172.108L28.2235 172.222H26.0275L26.1355 172.108V175H25.7095ZM29.7525 175V171.85H30.1785V174.352L32.2845 171.85H32.6625V175H32.2365V172.492L30.1365 175H29.7525ZM35.2033 175.03C34.8913 175.03 34.6113 174.962 34.3633 174.826C34.1193 174.686 33.9273 174.496 33.7873 174.256C33.6473 174.012 33.5773 173.734 33.5773 173.422C33.5773 173.106 33.6473 172.828 33.7873 172.588C33.9273 172.348 34.1193 172.16 34.3633 172.024C34.6113 171.888 34.8913 171.82 35.2033 171.82C35.4713 171.82 35.7133 171.872 35.9293 171.976C36.1453 172.08 36.3153 172.236 36.4393 172.444L36.1213 172.66C36.0133 172.5 35.8793 172.382 35.7193 172.306C35.5593 172.23 35.3853 172.192 35.1973 172.192C34.9733 172.192 34.7713 172.244 34.5913 172.348C34.4113 172.448 34.2693 172.59 34.1653 172.774C34.0613 172.958 34.0093 173.174 34.0093 173.422C34.0093 173.67 34.0613 173.886 34.1653 174.07C34.2693 174.254 34.4113 174.398 34.5913 174.502C34.7713 174.602 34.9733 174.652 35.1973 174.652C35.3853 174.652 35.5593 174.614 35.7193 174.538C35.8793 174.462 36.0133 174.346 36.1213 174.19L36.4393 174.406C36.3153 174.61 36.1453 174.766 35.9293 174.874C35.7133 174.978 35.4713 175.03 35.2033 175.03ZM39.2202 175V174.304L39.2022 174.19V173.026C39.2022 172.758 39.1262 172.552 38.9742 172.408C38.8262 172.264 38.6042 172.192 38.3082 172.192C38.1042 172.192 37.9102 172.226 37.7262 172.294C37.5422 172.362 37.3862 172.452 37.2582 172.564L37.0662 172.246C37.2262 172.11 37.4182 172.006 37.6422 171.934C37.8662 171.858 38.1022 171.82 38.3502 171.82C38.7582 171.82 39.0722 171.922 39.2922 172.126C39.5162 172.326 39.6282 172.632 39.6282 173.044V175H39.2202ZM38.1342 175.03C37.8982 175.03 37.6922 174.992 37.5162 174.916C37.3442 174.836 37.2122 174.728 37.1202 174.592C37.0282 174.452 36.9822 174.292 36.9822 174.112C36.9822 173.948 37.0202 173.8 37.0962 173.668C37.1762 173.532 37.3042 173.424 37.4802 173.344C37.6602 173.26 37.9002 173.218 38.2002 173.218H39.2862V173.536H38.2122C37.9082 173.536 37.6962 173.59 37.5762 173.698C37.4602 173.806 37.4022 173.94 37.4022 174.1C37.4022 174.28 37.4722 174.424 37.6122 174.532C37.7522 174.64 37.9482 174.694 38.2002 174.694C38.4402 174.694 38.6462 174.64 38.8182 174.532C38.9942 174.42 39.1222 174.26 39.2022 174.052L39.2982 174.346C39.2182 174.554 39.0782 174.72 38.8782 174.844C38.6822 174.968 38.4342 175.03 38.1342 175.03ZM40.7623 175V171.85H41.1883V173.242H43.1743V171.85H43.6003V175H43.1743V173.608H41.1883V175H40.7623ZM44.8111 175V171.85H45.2371V174.352L47.3431 171.85H47.7211V175H47.2951V172.492L45.1951 175H44.8111ZM50.2919 175.03C49.9639 175.03 49.6759 174.962 49.4279 174.826C49.1799 174.686 48.9859 174.496 48.8459 174.256C48.7059 174.012 48.6359 173.734 48.6359 173.422C48.6359 173.11 48.7019 172.834 48.8339 172.594C48.9699 172.354 49.1539 172.166 49.3859 172.03C49.6219 171.89 49.8859 171.82 50.1779 171.82C50.4739 171.82 50.7359 171.888 50.9639 172.024C51.1959 172.156 51.3779 172.344 51.5099 172.588C51.6419 172.828 51.7079 173.106 51.7079 173.422C51.7079 173.442 51.7059 173.464 51.7019 173.488C51.7019 173.508 51.7019 173.53 51.7019 173.554H48.9599V173.236H51.4739L51.3059 173.362C51.3059 173.134 51.2559 172.932 51.1559 172.756C51.0599 172.576 50.9279 172.436 50.7599 172.336C50.5919 172.236 50.3979 172.186 50.1779 172.186C49.9619 172.186 49.7679 172.236 49.5959 172.336C49.4239 172.436 49.2899 172.576 49.1939 172.756C49.0979 172.936 49.0499 173.142 49.0499 173.374V173.44C49.0499 173.68 49.1019 173.892 49.2059 174.076C49.3139 174.256 49.4619 174.398 49.6499 174.502C49.8419 174.602 50.0599 174.652 50.3039 174.652C50.4959 174.652 50.6739 174.618 50.8379 174.55C51.0059 174.482 51.1499 174.378 51.2699 174.238L51.5099 174.514C51.3699 174.682 51.1939 174.81 50.9819 174.898C50.7739 174.986 50.5439 175.03 50.2919 175.03ZM55.0672 175.036C55.3272 175.036 55.5612 174.996 55.7692 174.916C55.9812 174.836 56.1492 174.726 56.2732 174.586C56.3972 174.442 56.4592 174.276 56.4592 174.088C56.4592 173.848 56.3572 173.658 56.1532 173.518C55.9532 173.378 55.6732 173.308 55.3132 173.308L55.2952 173.422C55.4992 173.422 55.6812 173.39 55.8412 173.326C56.0012 173.262 56.1292 173.172 56.2252 173.056C56.3212 172.94 56.3692 172.804 56.3692 172.648C56.3692 172.472 56.3092 172.322 56.1892 172.198C56.0692 172.07 55.9072 171.972 55.7032 171.904C55.5032 171.836 55.2772 171.806 55.0252 171.814C54.8412 171.814 54.6572 171.84 54.4732 171.892C54.2932 171.94 54.1112 172.012 53.9272 172.108L54.0472 172.438C54.2112 172.354 54.3772 172.292 54.5452 172.252C54.7132 172.208 54.8752 172.184 55.0312 172.18C55.2032 172.18 55.3572 172.2 55.4932 172.24C55.6292 172.28 55.7352 172.34 55.8112 172.42C55.8912 172.5 55.9312 172.596 55.9312 172.708C55.9312 172.812 55.8972 172.902 55.8292 172.978C55.7652 173.054 55.6732 173.112 55.5532 173.152C55.4332 173.192 55.2952 173.212 55.1392 173.212H54.6292V173.524H55.1692C55.4332 173.524 55.6412 173.572 55.7932 173.668C55.9452 173.76 56.0212 173.89 56.0212 174.058C56.0212 174.174 55.9812 174.278 55.9012 174.37C55.8212 174.462 55.7092 174.534 55.5652 174.586C55.4212 174.638 55.2512 174.666 55.0552 174.67C54.8592 174.67 54.6612 174.642 54.4612 174.586C54.2612 174.526 54.0852 174.44 53.9332 174.328L53.7952 174.646C53.9672 174.778 54.1652 174.876 54.3892 174.94C54.6132 175.004 54.8392 175.036 55.0672 175.036ZM59.3823 175V174.304L59.3643 174.19V173.026C59.3643 172.758 59.2883 172.552 59.1363 172.408C58.9883 172.264 58.7663 172.192 58.4703 172.192C58.2663 172.192 58.0723 172.226 57.8883 172.294C57.7043 172.362 57.5483 172.452 57.4203 172.564L57.2283 172.246C57.3883 172.11 57.5803 172.006 57.8043 171.934C58.0283 171.858 58.2643 171.82 58.5123 171.82C58.9203 171.82 59.2343 171.922 59.4543 172.126C59.6783 172.326 59.7903 172.632 59.7903 173.044V175H59.3823ZM58.2963 175.03C58.0603 175.03 57.8543 174.992 57.6783 174.916C57.5063 174.836 57.3743 174.728 57.2823 174.592C57.1903 174.452 57.1443 174.292 57.1443 174.112C57.1443 173.948 57.1823 173.8 57.2583 173.668C57.3383 173.532 57.4663 173.424 57.6423 173.344C57.8223 173.26 58.0623 173.218 58.3623 173.218H59.4483V173.536H58.3743C58.0703 173.536 57.8583 173.59 57.7383 173.698C57.6223 173.806 57.5643 173.94 57.5643 174.1C57.5643 174.28 57.6343 174.424 57.7743 174.532C57.9143 174.64 58.1103 174.694 58.3623 174.694C58.6023 174.694 58.8083 174.64 58.9803 174.532C59.1563 174.42 59.2843 174.26 59.3643 174.052L59.4603 174.346C59.3803 174.554 59.2403 174.72 59.0403 174.844C58.8443 174.968 58.5963 175.03 58.2963 175.03ZM63.0844 174.796V172.222H61.5664L61.5304 172.924C61.5224 173.136 61.5084 173.344 61.4884 173.548C61.4724 173.752 61.4424 173.94 61.3984 174.112C61.3584 174.28 61.3004 174.418 61.2244 174.526C61.1484 174.63 61.0504 174.69 60.9304 174.706L60.5044 174.628C60.6284 174.632 60.7304 174.588 60.8104 174.496C60.8904 174.4 60.9524 174.27 60.9964 174.106C61.0404 173.942 61.0724 173.756 61.0924 173.548C61.1124 173.336 61.1284 173.12 61.1404 172.9L61.1824 171.85H63.5104V174.796H63.0844ZM60.3724 175.762V174.628H64.0024V175.762H63.6004V175H60.7744V175.762H60.3724ZM66.7886 175V174.304L66.7706 174.19V173.026C66.7706 172.758 66.6946 172.552 66.5426 172.408C66.3946 172.264 66.1726 172.192 65.8766 172.192C65.6726 172.192 65.4786 172.226 65.2946 172.294C65.1106 172.362 64.9546 172.452 64.8266 172.564L64.6346 172.246C64.7946 172.11 64.9866 172.006 65.2106 171.934C65.4346 171.858 65.6706 171.82 65.9186 171.82C66.3266 171.82 66.6406 171.922 66.8606 172.126C67.0846 172.326 67.1966 172.632 67.1966 173.044V175H66.7886ZM65.7026 175.03C65.4666 175.03 65.2606 174.992 65.0846 174.916C64.9126 174.836 64.7806 174.728 64.6886 174.592C64.5966 174.452 64.5506 174.292 64.5506 174.112C64.5506 173.948 64.5886 173.8 64.6646 173.668C64.7446 173.532 64.8726 173.424 65.0486 173.344C65.2286 173.26 65.4686 173.218 65.7686 173.218H66.8546V173.536H65.7806C65.4766 173.536 65.2646 173.59 65.1446 173.698C65.0286 173.806 64.9706 173.94 64.9706 174.1C64.9706 174.28 65.0406 174.424 65.1806 174.532C65.3206 174.64 65.5166 174.694 65.7686 174.694C66.0086 174.694 66.2146 174.64 66.3866 174.532C66.5626 174.42 66.6906 174.26 66.7706 174.052L66.8666 174.346C66.7866 174.554 66.6466 174.72 66.4466 174.844C66.2506 174.968 66.0026 175.03 65.7026 175.03ZM70.3226 173.668C70.1386 173.748 69.9526 173.812 69.7646 173.86C69.5806 173.904 69.3966 173.926 69.2126 173.926C68.8406 173.926 68.5466 173.842 68.3306 173.674C68.1146 173.502 68.0066 173.238 68.0066 172.882V171.85H68.4266V172.858C68.4266 173.098 68.5046 173.278 68.6606 173.398C68.8166 173.518 69.0266 173.578 69.2906 173.578C69.4506 173.578 69.6186 173.558 69.7946 173.518C69.9706 173.474 70.1486 173.412 70.3286 173.332L70.3226 173.668ZM70.2866 175V171.85H70.7126V175H70.2866ZM71.9224 175V171.85H72.3484V174.352L74.4544 171.85H74.8324V175H74.4064V172.492L72.3064 175H71.9224Z" fill="#6F6F6F"/>
<line x1="20" y1="159.85" x2="120" y2="159.85" stroke="black" stroke-width="0.3"/>
<line x1="20" y1="176.85" x2="120" y2="176.85" stroke="black" stroke-width="0.3"/>
<rect x="80" y="197" width="63" height="19" rx="7" fill="#AD3333"/>
<path d="M88.306 208.568V205.592H86.866L86.848 206.204C86.836 206.464 86.818 206.71 86.794 206.942C86.774 207.174 86.742 207.386 86.698 207.578C86.654 207.766 86.596 207.926 86.524 208.058C86.456 208.19 86.37 208.284 86.266 208.34L85.228 208.208C85.372 208.212 85.49 208.162 85.582 208.058C85.678 207.954 85.754 207.808 85.81 207.62C85.866 207.428 85.906 207.204 85.93 206.948C85.958 206.692 85.978 206.414 85.99 206.114L86.038 204.8H89.266V208.568H88.306ZM85.09 209.87L85.096 208.208H89.854V209.87H88.954V209H85.99V209.87H85.09ZM91.9132 209.048C91.5692 209.048 91.2632 208.976 90.9952 208.832C90.7312 208.688 90.5212 208.492 90.3652 208.244C90.2132 207.992 90.1372 207.706 90.1372 207.386C90.1372 207.062 90.2132 206.776 90.3652 206.528C90.5212 206.276 90.7312 206.08 90.9952 205.94C91.2632 205.796 91.5692 205.724 91.9132 205.724C92.2532 205.724 92.5572 205.796 92.8252 205.94C93.0932 206.08 93.3032 206.274 93.4552 206.522C93.6072 206.77 93.6832 207.058 93.6832 207.386C93.6832 207.706 93.6072 207.992 93.4552 208.244C93.3032 208.492 93.0932 208.688 92.8252 208.832C92.5572 208.976 92.2532 209.048 91.9132 209.048ZM91.9132 208.28C92.0692 208.28 92.2092 208.244 92.3332 208.172C92.4572 208.1 92.5552 207.998 92.6272 207.866C92.6992 207.73 92.7352 207.57 92.7352 207.386C92.7352 207.198 92.6992 207.038 92.6272 206.906C92.5552 206.774 92.4572 206.672 92.3332 206.6C92.2092 206.528 92.0692 206.492 91.9132 206.492C91.7572 206.492 91.6172 206.528 91.4932 206.6C91.3692 206.672 91.2692 206.774 91.1932 206.906C91.1212 207.038 91.0852 207.198 91.0852 207.386C91.0852 207.57 91.1212 207.73 91.1932 207.866C91.2692 207.998 91.3692 208.1 91.4932 208.172C91.6172 208.244 91.7572 208.28 91.9132 208.28ZM95.929 209.072C95.665 209.072 95.425 209.034 95.209 208.958C94.993 208.878 94.805 208.756 94.645 208.592C94.489 208.424 94.367 208.21 94.279 207.95C94.195 207.69 94.153 207.38 94.153 207.02C94.153 206.764 94.175 206.53 94.219 206.318C94.263 206.106 94.329 205.914 94.417 205.742C94.505 205.566 94.617 205.412 94.753 205.28C94.893 205.144 95.055 205.032 95.239 204.944C95.427 204.852 95.639 204.782 95.875 204.734L97.411 204.428L97.537 205.232L96.181 205.502C96.101 205.518 96.009 205.54 95.905 205.568C95.805 205.592 95.703 205.63 95.599 205.682C95.499 205.734 95.405 205.808 95.317 205.904C95.233 205.996 95.165 206.118 95.113 206.27C95.061 206.418 95.035 206.602 95.035 206.822C95.035 206.89 95.037 206.942 95.041 206.978C95.049 207.014 95.055 207.052 95.059 207.092C95.067 207.132 95.071 207.194 95.071 207.278L94.771 206.984C94.859 206.796 94.971 206.636 95.107 206.504C95.247 206.372 95.407 206.272 95.587 206.204C95.771 206.132 95.975 206.096 96.199 206.096C96.503 206.096 96.769 206.158 96.997 206.282C97.229 206.402 97.409 206.572 97.537 206.792C97.665 207.012 97.729 207.262 97.729 207.542C97.729 207.846 97.653 208.114 97.501 208.346C97.349 208.574 97.137 208.752 96.865 208.88C96.597 209.008 96.285 209.072 95.929 209.072ZM95.977 208.346C96.133 208.346 96.271 208.312 96.391 208.244C96.511 208.172 96.603 208.078 96.667 207.962C96.735 207.842 96.769 207.708 96.769 207.56C96.769 207.416 96.735 207.288 96.667 207.176C96.603 207.064 96.511 206.976 96.391 206.912C96.271 206.848 96.131 206.816 95.971 206.816C95.815 206.816 95.675 206.848 95.551 206.912C95.427 206.972 95.331 207.056 95.263 207.164C95.195 207.272 95.161 207.398 95.161 207.542C95.161 207.69 95.195 207.826 95.263 207.95C95.335 208.07 95.431 208.166 95.551 208.238C95.675 208.31 95.817 208.346 95.977 208.346ZM100.243 209V208.37L100.183 208.232V207.104C100.183 206.904 100.121 206.748 99.9973 206.636C99.8773 206.524 99.6913 206.468 99.4393 206.468C99.2673 206.468 99.0973 206.496 98.9293 206.552C98.7653 206.604 98.6253 206.676 98.5093 206.768L98.1733 206.114C98.3493 205.99 98.5613 205.894 98.8093 205.826C99.0573 205.758 99.3093 205.724 99.5653 205.724C100.057 205.724 100.439 205.84 100.711 206.072C100.983 206.304 101.119 206.666 101.119 207.158V209H100.243ZM99.2593 209.048C99.0073 209.048 98.7913 209.006 98.6113 208.922C98.4313 208.834 98.2933 208.716 98.1973 208.568C98.1013 208.42 98.0533 208.254 98.0533 208.07C98.0533 207.878 98.0993 207.71 98.1913 207.566C98.2873 207.422 98.4373 207.31 98.6413 207.23C98.8453 207.146 99.1113 207.104 99.4393 207.104H100.297V207.65H99.5413C99.3213 207.65 99.1693 207.686 99.0853 207.758C99.0053 207.83 98.9653 207.92 98.9653 208.028C98.9653 208.148 99.0113 208.244 99.1033 208.316C99.1993 208.384 99.3293 208.418 99.4933 208.418C99.6493 208.418 99.7893 208.382 99.9133 208.31C100.037 208.234 100.127 208.124 100.183 207.98L100.327 208.412C100.259 208.62 100.135 208.778 99.9553 208.886C99.7753 208.994 99.5433 209.048 99.2593 209.048ZM101.932 209V205.772H103.582C103.986 205.772 104.302 205.846 104.53 205.994C104.758 206.138 104.872 206.342 104.872 206.606C104.872 206.87 104.764 207.078 104.548 207.23C104.336 207.378 104.054 207.452 103.702 207.452L103.798 207.236C104.19 207.236 104.482 207.308 104.674 207.452C104.87 207.596 104.968 207.806 104.968 208.082C104.968 208.366 104.86 208.59 104.644 208.754C104.428 208.918 104.098 209 103.654 209H101.932ZM102.79 208.364H103.576C103.748 208.364 103.876 208.336 103.96 208.28C104.048 208.22 104.092 208.13 104.092 208.01C104.092 207.886 104.052 207.796 103.972 207.74C103.892 207.68 103.766 207.65 103.594 207.65H102.79V208.364ZM102.79 207.098H103.498C103.662 207.098 103.784 207.068 103.864 207.008C103.948 206.948 103.99 206.862 103.99 206.75C103.99 206.634 103.948 206.548 103.864 206.492C103.784 206.436 103.662 206.408 103.498 206.408H102.79V207.098ZM105.665 209V205.772H106.595V207.692L108.167 205.772H109.025V209H108.095V207.08L106.529 209H105.665ZM110.615 209V206.324L110.825 206.54H109.523V205.772H112.637V206.54H111.335L111.545 206.324V209H110.615ZM114.882 206.804C115.306 206.808 115.628 206.904 115.848 207.092C116.072 207.276 116.184 207.538 116.184 207.878C116.184 208.234 116.058 208.512 115.806 208.712C115.554 208.908 115.204 209.006 114.756 209.006L113.136 209V205.772H114.066V206.804H114.882ZM114.672 208.34C114.852 208.344 114.99 208.306 115.086 208.226C115.182 208.146 115.23 208.026 115.23 207.866C115.23 207.706 115.182 207.592 115.086 207.524C114.99 207.452 114.852 207.414 114.672 207.41L114.066 207.404V208.34H114.672ZM119.56 209.06C119.864 209.06 120.136 209.02 120.376 208.94C120.62 208.856 120.812 208.738 120.952 208.586C121.096 208.43 121.168 208.248 121.168 208.04C121.168 207.796 121.066 207.604 120.862 207.464C120.658 207.32 120.378 207.248 120.022 207.248L119.998 207.434C120.202 207.434 120.386 207.4 120.55 207.332C120.714 207.26 120.842 207.162 120.934 207.038C121.03 206.914 121.078 206.774 121.078 206.618C121.078 206.422 121.008 206.256 120.868 206.12C120.732 205.984 120.544 205.88 120.304 205.808C120.064 205.736 119.794 205.704 119.494 205.712C119.29 205.716 119.084 205.744 118.876 205.796C118.668 205.848 118.458 205.918 118.246 206.006L118.474 206.654C118.654 206.582 118.83 206.528 119.002 206.492C119.174 206.452 119.34 206.432 119.5 206.432C119.64 206.432 119.756 206.446 119.848 206.474C119.94 206.498 120.01 206.534 120.058 206.582C120.106 206.63 120.13 206.688 120.13 206.756C120.13 206.82 120.11 206.876 120.07 206.924C120.034 206.968 119.978 207.002 119.902 207.026C119.826 207.05 119.734 207.062 119.626 207.062H119.044V207.644H119.704C119.872 207.644 120 207.672 120.088 207.728C120.176 207.78 120.22 207.858 120.22 207.962C120.22 208.042 120.192 208.11 120.136 208.166C120.08 208.222 119.998 208.266 119.89 208.298C119.786 208.326 119.662 208.34 119.518 208.34C119.318 208.34 119.12 208.32 118.924 208.28C118.732 208.236 118.554 208.174 118.39 208.094L118.138 208.748C118.346 208.852 118.572 208.93 118.816 208.982C119.064 209.034 119.312 209.06 119.56 209.06ZM123.769 209V208.37L123.709 208.232V207.104C123.709 206.904 123.647 206.748 123.523 206.636C123.403 206.524 123.217 206.468 122.965 206.468C122.793 206.468 122.623 206.496 122.455 206.552C122.291 206.604 122.151 206.676 122.035 206.768L121.699 206.114C121.875 205.99 122.087 205.894 122.335 205.826C122.583 205.758 122.835 205.724 123.091 205.724C123.583 205.724 123.965 205.84 124.237 206.072C124.509 206.304 124.645 206.666 124.645 207.158V209H123.769ZM122.785 209.048C122.533 209.048 122.317 209.006 122.137 208.922C121.957 208.834 121.819 208.716 121.723 208.568C121.627 208.42 121.579 208.254 121.579 208.07C121.579 207.878 121.625 207.71 121.717 207.566C121.813 207.422 121.963 207.31 122.167 207.23C122.371 207.146 122.637 207.104 122.965 207.104H123.823V207.65H123.067C122.847 207.65 122.695 207.686 122.611 207.758C122.531 207.83 122.491 207.92 122.491 208.028C122.491 208.148 122.537 208.244 122.629 208.316C122.725 208.384 122.855 208.418 123.019 208.418C123.175 208.418 123.315 208.382 123.439 208.31C123.563 208.234 123.653 208.124 123.709 207.98L123.853 208.412C123.785 208.62 123.661 208.778 123.481 208.886C123.301 208.994 123.069 209.048 122.785 209.048ZM127.678 208.58V206.54H126.622L126.604 206.954C126.596 207.126 126.586 207.29 126.574 207.446C126.562 207.602 126.538 207.744 126.502 207.872C126.47 207.996 126.422 208.102 126.358 208.19C126.294 208.274 126.208 208.332 126.1 208.364L125.176 208.232C125.292 208.232 125.386 208.198 125.458 208.13C125.53 208.058 125.586 207.96 125.626 207.836C125.666 207.708 125.696 207.564 125.716 207.404C125.736 207.24 125.75 207.068 125.758 206.888L125.8 205.772H128.614V208.58H127.678ZM125.068 209.696V208.232H129.076V209.696H128.206V209H125.938V209.696H125.068ZM131.597 209V208.37L131.537 208.232V207.104C131.537 206.904 131.475 206.748 131.351 206.636C131.231 206.524 131.045 206.468 130.793 206.468C130.621 206.468 130.451 206.496 130.283 206.552C130.119 206.604 129.979 206.676 129.863 206.768L129.527 206.114C129.703 205.99 129.915 205.894 130.163 205.826C130.411 205.758 130.663 205.724 130.919 205.724C131.411 205.724 131.793 205.84 132.065 206.072C132.337 206.304 132.473 206.666 132.473 207.158V209H131.597ZM130.613 209.048C130.361 209.048 130.145 209.006 129.965 208.922C129.785 208.834 129.647 208.716 129.551 208.568C129.455 208.42 129.407 208.254 129.407 208.07C129.407 207.878 129.453 207.71 129.545 207.566C129.641 207.422 129.791 207.31 129.995 207.23C130.199 207.146 130.465 207.104 130.793 207.104H131.651V207.65H130.895C130.675 207.65 130.523 207.686 130.439 207.758C130.359 207.83 130.319 207.92 130.319 208.028C130.319 208.148 130.365 208.244 130.457 208.316C130.553 208.384 130.683 208.418 130.847 208.418C131.003 208.418 131.143 208.382 131.267 208.31C131.391 208.234 131.481 208.124 131.537 207.98L131.681 208.412C131.613 208.62 131.489 208.778 131.309 208.886C131.129 208.994 130.897 209.048 130.613 209.048ZM135.32 207.764C135.188 207.836 135.042 207.894 134.882 207.938C134.722 207.982 134.546 208.004 134.354 208.004C133.93 208.004 133.604 207.908 133.376 207.716C133.148 207.52 133.034 207.21 133.034 206.786V205.772H133.97V206.726C133.97 206.926 134.022 207.07 134.126 207.158C134.23 207.242 134.376 207.284 134.564 207.284C134.7 207.284 134.83 207.268 134.954 207.236C135.082 207.204 135.204 207.158 135.32 207.098V207.764ZM135.254 209V205.772H136.19V209H135.254ZM137.527 210.212C137.359 210.212 137.193 210.186 137.029 210.134C136.865 210.082 136.731 210.01 136.627 209.918L136.969 209.252C137.041 209.316 137.123 209.366 137.215 209.402C137.311 209.438 137.405 209.456 137.497 209.456C137.629 209.456 137.733 209.424 137.809 209.36C137.889 209.3 137.961 209.198 138.025 209.054L138.193 208.658L138.265 208.556L139.423 205.772H140.323L138.865 209.198C138.761 209.458 138.641 209.662 138.505 209.81C138.373 209.958 138.225 210.062 138.061 210.122C137.901 210.182 137.723 210.212 137.527 210.212ZM138.079 209.126L136.639 205.772H137.605L138.721 208.472L138.079 209.126Z" fill="white"/>
<path d="M23.78 153.8H24.218V158H23.78V153.8ZM21.152 158H20.708V153.8H21.152V158ZM23.822 156.062H21.104V155.672H23.822V156.062ZM27.4897 158V157.304L27.4717 157.19V156.026C27.4717 155.758 27.3957 155.552 27.2437 155.408C27.0957 155.264 26.8737 155.192 26.5777 155.192C26.3737 155.192 26.1797 155.226 25.9957 155.294C25.8117 155.362 25.6557 155.452 25.5277 155.564L25.3357 155.246C25.4957 155.11 25.6877 155.006 25.9117 154.934C26.1357 154.858 26.3717 154.82 26.6197 154.82C27.0277 154.82 27.3417 154.922 27.5617 155.126C27.7857 155.326 27.8977 155.632 27.8977 156.044V158H27.4897ZM26.4037 158.03C26.1677 158.03 25.9617 157.992 25.7857 157.916C25.6137 157.836 25.4817 157.728 25.3897 157.592C25.2977 157.452 25.2517 157.292 25.2517 157.112C25.2517 156.948 25.2897 156.8 25.3657 156.668C25.4457 156.532 25.5737 156.424 25.7497 156.344C25.9297 156.26 26.1697 156.218 26.4697 156.218H27.5557V156.536H26.4817C26.1777 156.536 25.9657 156.59 25.8457 156.698C25.7297 156.806 25.6717 156.94 25.6717 157.1C25.6717 157.28 25.7417 157.424 25.8817 157.532C26.0217 157.64 26.2177 157.694 26.4697 157.694C26.7097 157.694 26.9157 157.64 27.0877 157.532C27.2637 157.42 27.3917 157.26 27.4717 157.052L27.5677 157.346C27.4877 157.554 27.3477 157.72 27.1477 157.844C26.9517 157.968 26.7037 158.03 26.4037 158.03ZM29.8133 158.036C30.0733 158.036 30.3073 157.996 30.5153 157.916C30.7273 157.836 30.8953 157.726 31.0193 157.586C31.1433 157.442 31.2053 157.276 31.2053 157.088C31.2053 156.848 31.1033 156.658 30.8993 156.518C30.6993 156.378 30.4193 156.308 30.0593 156.308L30.0413 156.422C30.2453 156.422 30.4273 156.39 30.5873 156.326C30.7473 156.262 30.8753 156.172 30.9713 156.056C31.0673 155.94 31.1153 155.804 31.1153 155.648C31.1153 155.472 31.0553 155.322 30.9353 155.198C30.8153 155.07 30.6533 154.972 30.4493 154.904C30.2493 154.836 30.0233 154.806 29.7713 154.814C29.5873 154.814 29.4033 154.84 29.2193 154.892C29.0393 154.94 28.8573 155.012 28.6733 155.108L28.7933 155.438C28.9573 155.354 29.1233 155.292 29.2913 155.252C29.4593 155.208 29.6213 155.184 29.7773 155.18C29.9493 155.18 30.1033 155.2 30.2393 155.24C30.3753 155.28 30.4813 155.34 30.5573 155.42C30.6373 155.5 30.6773 155.596 30.6773 155.708C30.6773 155.812 30.6433 155.902 30.5753 155.978C30.5113 156.054 30.4193 156.112 30.2993 156.152C30.1793 156.192 30.0413 156.212 29.8853 156.212H29.3753V156.524H29.9153C30.1793 156.524 30.3873 156.572 30.5393 156.668C30.6913 156.76 30.7673 156.89 30.7673 157.058C30.7673 157.174 30.7273 157.278 30.6473 157.37C30.5673 157.462 30.4553 157.534 30.3113 157.586C30.1673 157.638 29.9973 157.666 29.8013 157.67C29.6053 157.67 29.4073 157.642 29.2073 157.586C29.0073 157.526 28.8313 157.44 28.6793 157.328L28.5413 157.646C28.7133 157.778 28.9113 157.876 29.1353 157.94C29.3593 158.004 29.5853 158.036 29.8133 158.036ZM32.1724 158V154.85H33.5644C33.9204 154.85 34.2004 154.918 34.4044 155.054C34.6124 155.19 34.7164 155.39 34.7164 155.654C34.7164 155.91 34.6184 156.108 34.4224 156.248C34.2264 156.384 33.9684 156.452 33.6484 156.452L33.7324 156.326C34.1084 156.326 34.3844 156.396 34.5604 156.536C34.7364 156.676 34.8244 156.878 34.8244 157.142C34.8244 157.414 34.7244 157.626 34.5244 157.778C34.3284 157.926 34.0224 158 33.6064 158H32.1724ZM32.5864 157.664H33.5884C33.8564 157.664 34.0584 157.622 34.1944 157.538C34.3344 157.45 34.4044 157.31 34.4044 157.118C34.4044 156.926 34.3424 156.786 34.2184 156.698C34.0944 156.61 33.8984 156.566 33.6304 156.566H32.5864V157.664ZM32.5864 156.248H33.5344C33.7784 156.248 33.9644 156.202 34.0924 156.11C34.2244 156.018 34.2904 155.884 34.2904 155.708C34.2904 155.532 34.2244 155.4 34.0924 155.312C33.9644 155.224 33.7784 155.18 33.5344 155.18H32.5864V156.248ZM37.7788 158V157.304L37.7608 157.19V156.026C37.7608 155.758 37.6848 155.552 37.5328 155.408C37.3848 155.264 37.1628 155.192 36.8668 155.192C36.6628 155.192 36.4688 155.226 36.2848 155.294C36.1008 155.362 35.9448 155.452 35.8168 155.564L35.6248 155.246C35.7848 155.11 35.9768 155.006 36.2008 154.934C36.4248 154.858 36.6608 154.82 36.9088 154.82C37.3168 154.82 37.6308 154.922 37.8508 155.126C38.0748 155.326 38.1868 155.632 38.1868 156.044V158H37.7788ZM36.6928 158.03C36.4568 158.03 36.2508 157.992 36.0748 157.916C35.9028 157.836 35.7708 157.728 35.6788 157.592C35.5868 157.452 35.5408 157.292 35.5408 157.112C35.5408 156.948 35.5788 156.8 35.6548 156.668C35.7348 156.532 35.8628 156.424 36.0388 156.344C36.2188 156.26 36.4588 156.218 36.7588 156.218H37.8448V156.536H36.7708C36.4668 156.536 36.2548 156.59 36.1348 156.698C36.0188 156.806 35.9608 156.94 35.9608 157.1C35.9608 157.28 36.0308 157.424 36.1708 157.532C36.3108 157.64 36.5068 157.694 36.7588 157.694C36.9988 157.694 37.2048 157.64 37.3768 157.532C37.5528 157.42 37.6808 157.26 37.7608 157.052L37.8568 157.346C37.7768 157.554 37.6368 157.72 37.4368 157.844C37.2408 157.968 36.9928 158.03 36.6928 158.03ZM39.3208 158V154.85H39.7468V156.242H41.7328V154.85H42.1588V158H41.7328V156.608H39.7468V158H39.3208ZM43.3697 158V154.85H43.7957V157.352L45.9017 154.85H46.2797V158H45.8537V155.492L43.7537 158H43.3697ZM48.8505 158.03C48.5225 158.03 48.2345 157.962 47.9865 157.826C47.7385 157.686 47.5445 157.496 47.4045 157.256C47.2645 157.012 47.1945 156.734 47.1945 156.422C47.1945 156.11 47.2605 155.834 47.3925 155.594C47.5285 155.354 47.7125 155.166 47.9445 155.03C48.1805 154.89 48.4445 154.82 48.7365 154.82C49.0325 154.82 49.2945 154.888 49.5225 155.024C49.7545 155.156 49.9365 155.344 50.0685 155.588C50.2005 155.828 50.2665 156.106 50.2665 156.422C50.2665 156.442 50.2645 156.464 50.2605 156.488C50.2605 156.508 50.2605 156.53 50.2605 156.554H47.5185V156.236H50.0325L49.8645 156.362C49.8645 156.134 49.8145 155.932 49.7145 155.756C49.6185 155.576 49.4865 155.436 49.3185 155.336C49.1505 155.236 48.9565 155.186 48.7365 155.186C48.5205 155.186 48.3265 155.236 48.1545 155.336C47.9825 155.436 47.8485 155.576 47.7525 155.756C47.6565 155.936 47.6085 156.142 47.6085 156.374V156.44C47.6085 156.68 47.6605 156.892 47.7645 157.076C47.8725 157.256 48.0205 157.398 48.2085 157.502C48.4005 157.602 48.6185 157.652 48.8625 157.652C49.0545 157.652 49.2325 157.618 49.3965 157.55C49.5645 157.482 49.7085 157.378 49.8285 157.238L50.0685 157.514C49.9285 157.682 49.7525 157.81 49.5405 157.898C49.3325 157.986 49.1025 158.03 48.8505 158.03ZM53.6258 158.036C53.8858 158.036 54.1198 157.996 54.3278 157.916C54.5398 157.836 54.7078 157.726 54.8318 157.586C54.9558 157.442 55.0178 157.276 55.0178 157.088C55.0178 156.848 54.9158 156.658 54.7118 156.518C54.5118 156.378 54.2318 156.308 53.8718 156.308L53.8538 156.422C54.0578 156.422 54.2398 156.39 54.3998 156.326C54.5598 156.262 54.6878 156.172 54.7838 156.056C54.8798 155.94 54.9278 155.804 54.9278 155.648C54.9278 155.472 54.8678 155.322 54.7478 155.198C54.6278 155.07 54.4658 154.972 54.2618 154.904C54.0618 154.836 53.8358 154.806 53.5838 154.814C53.3998 154.814 53.2158 154.84 53.0318 154.892C52.8518 154.94 52.6698 155.012 52.4858 155.108L52.6058 155.438C52.7698 155.354 52.9358 155.292 53.1038 155.252C53.2718 155.208 53.4338 155.184 53.5898 155.18C53.7618 155.18 53.9158 155.2 54.0518 155.24C54.1878 155.28 54.2938 155.34 54.3698 155.42C54.4498 155.5 54.4898 155.596 54.4898 155.708C54.4898 155.812 54.4558 155.902 54.3878 155.978C54.3238 156.054 54.2318 156.112 54.1118 156.152C53.9918 156.192 53.8538 156.212 53.6978 156.212H53.1878V156.524H53.7278C53.9918 156.524 54.1998 156.572 54.3518 156.668C54.5038 156.76 54.5798 156.89 54.5798 157.058C54.5798 157.174 54.5398 157.278 54.4598 157.37C54.3798 157.462 54.2678 157.534 54.1238 157.586C53.9798 157.638 53.8098 157.666 53.6138 157.67C53.4178 157.67 53.2198 157.642 53.0198 157.586C52.8198 157.526 52.6438 157.44 52.4918 157.328L52.3538 157.646C52.5258 157.778 52.7238 157.876 52.9478 157.94C53.1718 158.004 53.3978 158.036 53.6258 158.036ZM57.9409 158V157.304L57.9229 157.19V156.026C57.9229 155.758 57.8469 155.552 57.6949 155.408C57.5469 155.264 57.3249 155.192 57.0289 155.192C56.8249 155.192 56.6309 155.226 56.4469 155.294C56.2629 155.362 56.1069 155.452 55.9789 155.564L55.7869 155.246C55.9469 155.11 56.1389 155.006 56.3629 154.934C56.5869 154.858 56.8229 154.82 57.0709 154.82C57.4789 154.82 57.7929 154.922 58.0129 155.126C58.2369 155.326 58.3489 155.632 58.3489 156.044V158H57.9409ZM56.8549 158.03C56.6189 158.03 56.4129 157.992 56.2369 157.916C56.0649 157.836 55.9329 157.728 55.8409 157.592C55.7489 157.452 55.7029 157.292 55.7029 157.112C55.7029 156.948 55.7409 156.8 55.8169 156.668C55.8969 156.532 56.0249 156.424 56.2009 156.344C56.3809 156.26 56.6209 156.218 56.9209 156.218H58.0069V156.536H56.9329C56.6289 156.536 56.4169 156.59 56.2969 156.698C56.1809 156.806 56.1229 156.94 56.1229 157.1C56.1229 157.28 56.1929 157.424 56.3329 157.532C56.4729 157.64 56.6689 157.694 56.9209 157.694C57.1609 157.694 57.3669 157.64 57.5389 157.532C57.7149 157.42 57.8429 157.26 57.9229 157.052L58.0189 157.346C57.9389 157.554 57.7989 157.72 57.5989 157.844C57.4029 157.968 57.1549 158.03 56.8549 158.03ZM61.643 157.796V155.222H60.125L60.089 155.924C60.081 156.136 60.067 156.344 60.047 156.548C60.031 156.752 60.001 156.94 59.957 157.112C59.917 157.28 59.859 157.418 59.783 157.526C59.707 157.63 59.609 157.69 59.489 157.706L59.063 157.628C59.187 157.632 59.289 157.588 59.369 157.496C59.449 157.4 59.511 157.27 59.555 157.106C59.599 156.942 59.631 156.756 59.651 156.548C59.671 156.336 59.687 156.12 59.699 155.9L59.741 154.85H62.069V157.796H61.643ZM58.931 158.762V157.628H62.561V158.762H62.159V158H59.333V158.762H58.931ZM65.3472 158V157.304L65.3292 157.19V156.026C65.3292 155.758 65.2532 155.552 65.1012 155.408C64.9532 155.264 64.7312 155.192 64.4352 155.192C64.2312 155.192 64.0372 155.226 63.8532 155.294C63.6692 155.362 63.5132 155.452 63.3852 155.564L63.1932 155.246C63.3532 155.11 63.5452 155.006 63.7692 154.934C63.9932 154.858 64.2292 154.82 64.4772 154.82C64.8852 154.82 65.1992 154.922 65.4192 155.126C65.6432 155.326 65.7552 155.632 65.7552 156.044V158H65.3472ZM64.2612 158.03C64.0252 158.03 63.8192 157.992 63.6432 157.916C63.4712 157.836 63.3392 157.728 63.2472 157.592C63.1552 157.452 63.1092 157.292 63.1092 157.112C63.1092 156.948 63.1472 156.8 63.2232 156.668C63.3032 156.532 63.4312 156.424 63.6072 156.344C63.7872 156.26 64.0272 156.218 64.3272 156.218H65.4132V156.536H64.3392C64.0352 156.536 63.8232 156.59 63.7032 156.698C63.5872 156.806 63.5292 156.94 63.5292 157.1C63.5292 157.28 63.5992 157.424 63.7392 157.532C63.8792 157.64 64.0752 157.694 64.3272 157.694C64.5672 157.694 64.7732 157.64 64.9452 157.532C65.1212 157.42 65.2492 157.26 65.3292 157.052L65.4252 157.346C65.3452 157.554 65.2052 157.72 65.0052 157.844C64.8092 157.968 64.5612 158.03 64.2612 158.03ZM68.8812 156.668C68.6972 156.748 68.5112 156.812 68.3232 156.86C68.1392 156.904 67.9552 156.926 67.7712 156.926C67.3992 156.926 67.1052 156.842 66.8892 156.674C66.6732 156.502 66.5652 156.238 66.5652 155.882V154.85H66.9852V155.858C66.9852 156.098 67.0632 156.278 67.2192 156.398C67.3752 156.518 67.5852 156.578 67.8492 156.578C68.0092 156.578 68.1772 156.558 68.3532 156.518C68.5292 156.474 68.7072 156.412 68.8872 156.332L68.8812 156.668ZM68.8452 158V154.85H69.2712V158H68.8452ZM70.481 158V154.85H70.907V157.352L73.013 154.85H73.391V158H72.965V155.492L70.865 158H70.481Z" fill="#6F6F6F"/>
</g>
<defs>
<clipPath id="clip0_1_2">
<rect width="150" height="240" rx="10" fill="white"/>
</clipPath>
<clipPath id="clip1_1_2">
<rect width="9" height="9" fill="white" transform="translate(135 11)"/>
</clipPath>
<clipPath id="clip2_1_2">
<rect width="9" height="9" fill="white" transform="translate(22 12)"/>
</clipPath>
</defs>
</svg>
