<svg width="150" height="150" viewBox="0 0 150 150" fill="none" xmlns="http://www.w3.org/2000/svg">
<g clip-path="url(#clip0_12_83)">
<rect width="150" height="150" rx="10" fill="white"/>
<rect width="150" height="150" rx="10" fill="#AD3333"/>
<path d="M3.8 86V58H11.72V86H3.8Z" fill="white"/>
<path d="M94.5227 87V59H102.443V87H94.5227Z" fill="white"/>
<path d="M103.687 87V59H110.207L125.647 77.64H122.567V59H130.327V87H123.807L108.367 68.36H111.447V87H103.687Z" fill="white"/>
<path d="M12.6867 86V58H19.2067L34.6467 76.64H31.5667V58H39.3267V86H32.8067L17.3667 67.36H20.4467V86H12.6867Z" fill="white"/>
<path d="M44.7766 86V58H58.0166C61.1099 58 63.8299 58.5733 66.1766 59.72C68.5232 60.8667 70.3499 62.48 71.6566 64.56C72.9899 66.64 73.6566 69.12 73.6566 72C73.6566 74.8533 72.9899 77.3333 71.6566 79.44C70.3499 81.52 68.5232 83.1333 66.1766 84.28C63.8299 85.4267 61.1099 86 58.0166 86H44.7766ZM52.6966 79.68H57.6966C59.2966 79.68 60.6832 79.3867 61.8566 78.8C63.0566 78.1867 63.9899 77.3067 64.6566 76.16C65.3232 74.9867 65.6566 73.6 65.6566 72C65.6566 70.3733 65.3232 68.9867 64.6566 67.84C63.9899 66.6933 63.0566 65.8267 61.8566 65.24C60.6832 64.6267 59.2966 64.32 57.6966 64.32H52.6966V79.68Z" fill="white"/>
<path d="M83.5127 87.28C81.506 87.28 79.721 86.86 78.1577 86.02C76.6177 85.18 75.3927 84.0367 74.4827 82.59C73.596 81.12 73.1527 79.4517 73.1527 77.585C73.1527 75.695 73.596 74.0267 74.4827 72.58C75.3927 71.11 76.6177 69.9667 78.1577 69.15C79.721 68.31 81.506 67.89 83.5127 67.89C85.496 67.89 87.2694 68.31 88.8327 69.15C90.396 69.9667 91.621 71.0983 92.5077 72.545C93.3944 73.9917 93.8377 75.6717 93.8377 77.585C93.8377 79.4517 93.3944 81.12 92.5077 82.59C91.621 84.0367 90.396 85.18 88.8327 86.02C87.2694 86.86 85.496 87.28 83.5127 87.28ZM83.5127 82.8C84.4227 82.8 85.2394 82.59 85.9627 82.17C86.686 81.75 87.2577 81.155 87.6777 80.385C88.0977 79.5917 88.3077 78.6583 88.3077 77.585C88.3077 76.4883 88.0977 75.555 87.6777 74.785C87.2577 74.015 86.686 73.42 85.9627 73C85.2394 72.58 84.4227 72.37 83.5127 72.37C82.6027 72.37 81.786 72.58 81.0627 73C80.3394 73.42 79.756 74.015 79.3127 74.785C78.8927 75.555 78.6827 76.4883 78.6827 77.585C78.6827 78.6583 78.8927 79.5917 79.3127 80.385C79.756 81.155 80.3394 81.75 81.0627 82.17C81.786 82.59 82.6027 82.8 83.5127 82.8Z" fill="white"/>
<path d="M140.5 87.35C139.117 87.35 137.833 87.1333 136.65 86.7C135.467 86.25 134.442 85.6167 133.575 84.8C132.725 83.9833 132.058 83.025 131.575 81.925C131.092 80.8083 130.85 79.5833 130.85 78.25C130.85 76.9167 131.092 75.7 131.575 74.6C132.058 73.4833 132.733 72.5167 133.6 71.7C134.467 70.8833 135.492 70.2583 136.675 69.825C137.875 69.375 139.183 69.15 140.6 69.15C142.25 69.15 143.725 69.425 145.025 69.975C146.325 70.525 147.4 71.3167 148.25 72.35L145.1 75.2C144.5 74.55 143.85 74.0667 143.15 73.75C142.467 73.4167 141.7 73.25 140.85 73.25C140.1 73.25 139.417 73.3667 138.8 73.6C138.183 73.8333 137.658 74.175 137.225 74.625C136.792 75.0583 136.45 75.5833 136.2 76.2C135.967 76.8 135.85 77.4833 135.85 78.25C135.85 78.9833 135.967 79.6583 136.2 80.275C136.45 80.8917 136.792 81.425 137.225 81.875C137.658 82.3083 138.175 82.65 138.775 82.9C139.392 83.1333 140.067 83.25 140.8 83.25C141.533 83.25 142.25 83.1333 142.95 82.9C143.65 82.65 144.358 82.2333 145.075 81.65L147.85 85.125C146.85 85.8417 145.692 86.3917 144.375 86.775C143.058 87.1583 141.767 87.35 140.5 87.35ZM143.475 84.475V77.875H147.85V85.125L143.475 84.475Z" fill="white"/>
</g>
<defs>
<clipPath id="clip0_12_83">
<rect width="150" height="150" rx="10" fill="white"/>
</clipPath>
</defs>
</svg>
