<svg width="150" height="50" viewBox="0 0 150 50" fill="none" xmlns="http://www.w3.org/2000/svg">
<g clip-path="url(#clip0_16_30)">
<rect width="150" height="50" rx="10" fill="white"/>
<rect width="150" height="50" rx="10" fill="white"/>
<path d="M0 0H150V16H0V0Z" fill="#AD7533"/>
<rect x="7" y="3" width="10" height="10" rx="3" fill="white"/>
<rect x="118" y="3" width="10" height="10" rx="3" fill="white"/>
<rect x="133" y="3" width="10" height="10" rx="3" fill="white"/>
<rect x="22" y="3" width="10" height="10" rx="3" fill="white"/>
<rect x="12" y="19" width="45" height="6" rx="3" fill="#D9D9D9"/>
<rect x="12" y="37" width="45" height="6" rx="3" fill="#D9D9D9"/>
<rect x="12" y="28" width="60" height="6" rx="3" fill="#D9D9D9"/>
<circle cx="7" cy="40" r="2" fill="#AD7533"/>
<circle cx="7" cy="22" r="2" fill="#AD7533"/>
<circle cx="7" cy="31" r="2" fill="#AD7533"/>
</g>
<rect x="0.15" y="0.15" width="149.7" height="49.7" rx="9.85" stroke="black" stroke-width="0.3"/>
<defs>
<clipPath id="clip0_16_30">
<rect width="150" height="50" rx="10" fill="white"/>
</clipPath>
</defs>
</svg>
